# xmcd
#
# Track frame offsets:
#	150
#	20265
#	37555
#	57020
#	67587
#	81137
#	97150
#	113927
#	132600
#	142630
#
# Disc length: 2081 seconds
#
# Revision: 3
# Processed by: cddbd v1.5.2PL0 Copyright (c) Steve Scherf et al.
# Submitted via: EasyCDDAExtractor 8.2.3.1
#
DISCID=73081f0a
DTITLE=David Allan Coe - Johnny Cash Is A Friend Of Mine
DYEAR=1998
DGENRE=Country
TTITLE0=One Piece At A Time
TTITLE1=Folsom Prison Blues
TTITLE2=Sunday Morning Coming Down
TTITLE3=Ballad Of A Teenage Queen
TTITLE4=Hey Porter
TTITLE5=Get Rhythm
TTITLE6=I Walk The Line
TTITLE7=Ring Of Fire
TTITLE8=Cry! Cry! Cry!
TTITLE9=Doin' My Time
EXTD=YEAR: 1998 ID3G: 2
EXTT0=
EXTT1=
EXTT2=
EXTT3=
EXTT4=
EXTT5=
EXTT6=
EXTT7=
EXTT8=
EXTT9=
PLAYORDER=
